<?xml version="1.0" encoding="utf-8"?>
<!-- Generator: Adobe Illustrator 16.0.0, SVG Export Plug-In . SVG Version: 6.00 Build 0)  -->
<!DOCTYPE svg PUBLIC "-//W3C//DTD SVG 1.1//EN" "http://www.w3.org/Graphics/SVG/1.1/DTD/svg11.dtd">
<svg version="1.1" id="圖層_1" xmlns="http://www.w3.org/2000/svg" xmlns:xlink="http://www.w3.org/1999/xlink" x="0px" y="0px"
	 width="17.216px" height="23.564px" viewBox="0 0 17.216 23.564" enable-background="new 0 0 17.216 23.564" xml:space="preserve">
<g id="Livello_110">
	<path fill="#FFFFFF" d="M13.809,8.569c0,2.946-2.4,5.336-5.361,5.336c-2.962,0-5.362-2.39-5.362-5.336
		c0-2.948,2.401-5.337,5.362-5.337C11.408,3.231,13.809,5.621,13.809,8.569 M17.216,8.569C17.216,3.836,13.362,0,8.608,0
		C3.854,0,0,3.836,0,8.569c0,2.081,0.747,3.988,1.985,5.472l6.63,9.523l6.729-9.662c0.24-0.301,0.462-0.618,0.662-0.952l0.067-0.097
		h-0.011C16.796,11.593,17.216,10.13,17.216,8.569"/>
</g>
</svg>
